<svg version="1.1" xmlns="http://www.w3.org/2000/svg" xmlns:xlink="http://www.w3.org/1999/xlink" width="500.00003" height="500.00003"><g data-paper-data="{&quot;description&quot;:&quot;Logo for S.I\n============\n\nThis logo was generated by MarkMaker at http://emblemmatic.org/markmaker/ and may be composed of elements designed by others.\n\nThe font is Sarabun Bold designed by Suppakit Chalermlarp and released under the OFL license via Google Fonts: https://www.google.com/fonts/specimen/Sarabun. The font includes this copyright statement: Copyright (c) 2010-2013 by Software Industry Promotion Agency (Public Organization) (SIPA). All rights reserved. Created by Suppakit CHALERMLARP.\n\nMarkMaker uses semantic data from the Princeton University WordNet database http://wordnet.princeton.edu and font descriptions from Google Fonts https://www.google.com/fonts.&quot;}" fill="#c9f6f6" fill-rule="nonzero" stroke="none" stroke-width="1" stroke-linecap="butt" stroke-linejoin="miter" stroke-miterlimit="10" stroke-dasharray="" stroke-dashoffset="0" font-family="none" font-weight="none" font-size="none" text-anchor="none" style="mix-blend-mode: normal"><g data-paper-data="{&quot;elementType&quot;:&quot;logo&quot;}"><g data-paper-data="{&quot;elementType&quot;:&quot;text&quot;}"><g data-paper-data="{&quot;baseline&quot;:48.5,&quot;elementType&quot;:&quot;row&quot;}"><g data-paper-data="{&quot;baselineProportion&quot;:0.9817813765182185,&quot;fontSize&quot;:100,&quot;baseline&quot;:48.5,&quot;elementType&quot;:&quot;word&quot;}"><path d="M252.85263,318.46278c0,26.2018 -10.45959,47.43793 -31.37877,63.7084c-20.91918,16.27047 -47.01532,24.40571 -78.28844,24.40571c-33.38616,0 -64.44797,-9.08611 -93.18543,-27.25832l17.11569,-36.13312c24.08875,18.17221 50.29055,27.25832 78.60539,27.25832c20.70787,0 36.97834,-4.54305 48.81141,-13.62916c11.83307,-9.08611 17.7496,-21.23613 17.7496,-36.45008c0,-25.35658 -20.28526,-44.58532 -60.85579,-57.68622c-59.58796,-19.01743 -89.38194,-48.1775 -89.38194,-87.4802c0,-23.66614 9.40306,-43.21184 28.20919,-58.63709c18.80613,-15.42525 43.21184,-23.13788 73.21712,-23.13788c30.00528,0 55.99578,6.76175 77.97148,20.28526l-17.11569,31.69572c-21.13048,-10.56524 -41.62705,-15.84786 -61.4897,-15.84786c-18.17221,0 -32.8579,4.12044 -44.05705,12.36133c-11.19916,8.24089 -16.79873,18.27787 -16.79873,30.11094c0,23.24353 20.28526,41.41574 60.85579,54.51664c32.96355,10.56524 56.20708,22.82092 69.73059,36.76704c13.52351,13.94612 20.28526,32.32964 20.28526,55.15056z" data-paper-data="{&quot;elementType&quot;:&quot;letter&quot;,&quot;baseline&quot;:48.5,&quot;baselineProportion&quot;:0.9817813765182185,&quot;fontSize&quot;:100}"></path><path d="M354.27894,376.14899c0,8.45219 -2.95827,15.63656 -8.8748,21.55309c-5.91653,5.91653 -13.1009,8.8748 -21.55309,8.8748c-8.45219,0 -15.63656,-2.95827 -21.55309,-8.8748c-5.91653,-5.91653 -8.8748,-13.1009 -8.8748,-21.55309c0,-8.45219 2.95827,-15.63656 8.8748,-21.55309c5.91653,-5.91653 13.1009,-8.8748 21.55309,-8.8748c8.45219,0 15.63656,2.95827 21.55309,8.8748c5.91653,5.91653 8.8748,13.1009 8.8748,21.55309z" data-paper-data="{&quot;elementType&quot;:&quot;letter&quot;,&quot;baseline&quot;:8.700000000000003,&quot;baselineProportion&quot;:0.9062499999999994,&quot;fontSize&quot;:100}"></path><path d="M450.00003,400.87166h-39.93661v-301.74328h39.93661z" data-paper-data="{&quot;elementType&quot;:&quot;letter&quot;,&quot;baseline&quot;:47.6,&quot;baselineProportion&quot;:1,&quot;fontSize&quot;:100}"></path></g></g></g></g></g></svg>